<?xml version="1.0" encoding="utf-8"?>
<!-- Generator: Adobe Illustrator 27.8.1, SVG Export Plug-In . SVG Version: 6.00 Build 0)  -->
<svg version="1.1" xmlns="http://www.w3.org/2000/svg" xmlns:xlink="http://www.w3.org/1999/xlink" x="0px" y="0px"
	 viewBox="0 0 150 20" style="enable-background:new 0 0 150 20;" xml:space="preserve">
<style type="text/css">
	.st0{fill:#bbbbc1;}
</style>
<g id="_x30_">
	<g id="ATTRIB">
	</g>
	<g id="ATTRIB_00000103225347298860283430000002239330589539349389_">
	</g>
	<g id="ATTRIB_00000041983671535376338140000015078041377471986321_">
	</g>
	<g id="ATTRIB_00000141435044466506093770000008657333302001677219_">
	</g>
	<g id="ATTRIB_00000068643721011961295720000013911940000730135711_">
	</g>
	<g id="ATTRIB_00000072993774183354307730000005121641887007591092_">
	</g>
	<g id="ATTRIB_00000109030303346308732800000007401711320167738559_">
	</g>
</g>
<g id="Skizziergeometrie_x28_DIN_x29_">
</g>
<g id="Symbole_x28_DIN_x29_">
	<g id="ATTDEF">
	</g>
	<g id="ATTDEF_00000163034644473286941690000016374985927715502258_">
	</g>
	<g id="ATTDEF_00000100357570351341968930000006396936408066991537_">
	</g>
	<g id="ATTDEF_00000061471524569853529450000005067464745082361532_">
	</g>
	<g id="ATTDEF_00000103224409666641941460000002621697277473761981_">
	</g>
	<g id="ATTDEF_00000025427491113507320830000016026027806098188984_">
	</g>
	<g id="ATTDEF_00000127760978347738049270000010883331416174659223_">
	</g>
	<g id="ATTDEF_00000173140407743379698200000009050725211519327926_">
	</g>
	<g id="ATTDEF_00000152972832917460532870000002474904673594125246_">
	</g>
	<g id="ATTDEF_00000023255978872905455640000003755428055042610065_">
	</g>
	<g id="ATTDEF_00000069366705798179747130000002075429079284691335_">
	</g>
	<g id="ATTDEF_00000057856988539537710560000004944466769872530614_">
	</g>
	<g id="ATTDEF_00000039116403023268528560000017862333652879105454_">
	</g>
	<g id="ATTDEF_00000083789387504191097780000014347709171729376407_">
	</g>
</g>
<g id="Sichtbare_Kanten_x28_DIN_x29_">
	<g id="LINE_00000160874510630303441470000012618790279370735018_">
		<g id="XMLID_00000006676414734563191130000009584721300391349428_">
			<g>
				<polygon class="st0" points="127.24,6.56 127.24,15.91 124.51,15.91 124.51,6.56 120.91,6.56 120.91,3.85 130.61,3.85 
					130.61,6.56 				"/>
				<polygon class="st0" points="119.42,13.41 119.42,15.91 113.12,15.91 113.12,13.41 114.88,13.41 114.88,6.56 113.12,6.56 
					113.12,3.85 119.42,3.85 119.42,6.56 117.79,6.56 117.79,13.41 				"/>
				<rect x="105.12" y="9.98" class="st0" width="6.23" height="2.54"/>
				<rect x="94.01" y="13.41" class="st0" width="9.23" height="2.5"/>
				<rect x="94.01" y="3.85" class="st0" width="9.23" height="2.71"/>
				<rect x="94.85" y="8.6" class="st0" width="7.54" height="2.76"/>
				<polygon class="st0" points="92.76,3.85 88.6,15.91 85.68,15.91 81.26,3.85 84.19,3.85 87.1,11.8 89.83,3.85 				"/>
				<polygon class="st0" points="74.57,13.41 80.59,13.41 80.59,15.91 71.69,15.91 71.69,3.85 74.57,3.85 				"/>
				<path class="st0" d="M59.55,8.36c0-2.68,2.18-4.86,4.87-4.86c2.69,0,4.87,2.18,4.87,4.86v3.28c0,2.69-2.18,4.87-4.87,4.87
					c-2.69,0-4.87-2.18-4.87-4.87V8.36z M64.42,6.22c-1.18,0-2.15,0.96-2.15,2.14v3.28c0,1.19,0.97,2.15,2.15,2.15
					c1.19,0,2.15-0.96,2.15-2.15V8.36C66.57,7.18,65.61,6.22,64.42,6.22z"/>
				<path class="st0" d="M47.84,11.98h2.73c-0.72,1.81,2.84,2.68,3.96,0.92l0.01-0.01v-0.01l0.01-0.01v-0.01l0.01-0.01v-0.01
					l0.01-0.01v-0.01l0.01-0.01V12.8l0.01-0.01v-0.01l0.01-0.01v-0.01v-0.01l0.01-0.01v-0.01v-0.01l0.01-0.01V12.7v-0.02v-0.01
					l0.01-0.01v-0.01v-0.01v-0.01v-0.01v-0.01l0.01-0.01v-0.01v-0.01v-0.01v-0.01v-0.01v-0.01v-0.01v-0.01v-0.01V12.5v-0.01v-0.02
					v-0.02l-0.01-0.02V12.4v-0.02l-0.01-0.02v-0.02l-0.01-0.02L54.6,12.3v-0.02l-0.01-0.02l-0.01-0.02l-0.01-0.02l-0.01-0.02
					l-0.01-0.02l-0.01-0.02l-0.01-0.02l-0.01-0.02l-0.01-0.02l-0.01-0.02l-0.01-0.02l-0.02-0.02l-0.01-0.01l-0.02-0.02l-0.01-0.02
					l-0.02-0.02l-0.01-0.02l-0.02-0.02l-0.02-0.02l-0.01-0.01l-0.02-0.02l-0.02-0.02l-0.02-0.02l-0.02-0.02l-0.02-0.01l-0.02-0.02
					l-0.02-0.02l-0.02-0.01l-0.02-0.02l-0.02-0.02l-0.02-0.01l-0.02-0.02l-0.03-0.01l-0.02-0.02l-0.02-0.02l-0.03-0.01l-0.02-0.02
					l-0.03-0.01l-0.02-0.02l-0.03-0.01l-0.02-0.02l-0.03-0.01l-0.03-0.01l-0.02-0.02l-0.03-0.01l-0.03-0.02l-0.03-0.01l-0.03-0.01
					l-0.03-0.02l-0.02-0.01l-0.03-0.01l-0.03-0.01l-0.03-0.02l-0.03-0.01l-0.03-0.01l-0.03-0.01l-0.04-0.01l-0.03-0.01l-0.03-0.01
					l-0.03-0.02L53.3,11.3l-0.04-0.01l-0.03-0.01l-0.03-0.01l-0.03-0.01l-0.04-0.01l-0.03-0.01l-0.04-0.01l-0.03-0.01L53,11.21
					l-0.04-0.01h-0.03l-0.04-0.01l-0.03-0.01l-0.04-0.01l-0.03-0.01l-0.04-0.01l-0.04-0.01h-0.03l-0.04-0.01l-0.03-0.01l-0.04-0.01
					h-0.04L52.5,11.1l-0.04-0.01l-0.04-0.01h-0.04l-0.03-0.01l-0.08-0.01l-0.08-0.02l-0.07-0.01l-0.08-0.01L51.96,11l-0.07-0.01
					l-0.08-0.01l-0.08-0.01l-0.08-0.01l-0.08-0.02l-0.07-0.01l-0.08-0.01l-0.08-0.01l-0.08-0.02l-0.08-0.01l-0.08-0.01l-0.08-0.02
					l-0.07-0.01l-0.08-0.02h-0.04l-0.04-0.01l-0.04-0.01l-0.04-0.01l-0.04-0.01l-0.04-0.01h-0.04l-0.04-0.01l-0.03-0.01l-0.04-0.01
					l-0.04-0.01l-0.04-0.01l-0.04-0.01l-0.04-0.01l-0.03-0.01l-0.04-0.02l-0.04-0.01l-0.04-0.01l-0.04-0.01l-0.03-0.01l-0.04-0.02
					l-0.04-0.01l-0.04-0.01l-0.03-0.02l-0.04-0.01l-0.04-0.02l-0.03-0.01l-0.04-0.02l-0.04-0.01l-0.03-0.02l-0.04-0.02l-0.03-0.01
					l-0.04-0.02l-0.03-0.02l-0.04-0.02l-0.03-0.02l-0.04-0.02l-0.03-0.02l-0.04-0.02l-0.03-0.02l-0.02-0.01l-0.02-0.01l-0.01-0.01
					l-0.02-0.02l-0.02-0.01l-0.01-0.01l-0.02-0.01l-0.02-0.01l-0.01-0.02l-0.02-0.01l-0.02-0.01l-0.01-0.01l-0.02-0.02l-0.02-0.01
					l-0.01-0.01l-0.02-0.02l-0.02-0.01l-0.01-0.01l-0.02-0.02l-0.01-0.01l-0.02-0.02l-0.02-0.01L49,9.99l-0.02-0.01l-0.01-0.02
					l-0.02-0.01l-0.01-0.02l-0.02-0.01L48.91,9.9l-0.02-0.01l-0.02-0.02l-0.01-0.02l-0.02-0.01l-0.01-0.02L48.81,9.8L48.8,9.79
					l-0.02-0.02l-0.01-0.02l-0.01-0.02l-0.02-0.02L48.73,9.7l-0.02-0.02L48.7,9.66l-0.02-0.02l-0.01-0.02L48.65,9.6l-0.01-0.02
					l-0.01-0.02l-0.02-0.02L48.6,9.52L48.58,9.5l-0.01-0.02l-0.01-0.02l-0.02-0.02l-0.01-0.02l-0.01-0.03L48.5,9.37l-0.01-0.02
					l-0.01-0.02L48.46,9.3l-0.01-0.02l-0.01-0.02l-0.02-0.03l-0.01-0.02L48.4,9.19l-0.01-0.03l-0.02-0.02l-0.01-0.03l-0.01-0.02
					l-0.01-0.03l-0.02-0.02l-0.01-0.03L48.3,8.98l-0.01-0.02l-0.01-0.03L48.27,8.9l-0.02-0.02l-0.01-0.03l-0.01-0.03l-0.01-0.03
					l-0.01-0.03L48.2,8.73l-0.01-0.02l-0.02-0.03l-0.01-0.03l-0.01-0.03l-0.01-0.03l-0.01-0.04l-0.01-0.03l-0.01-0.03L48.1,8.46
					l-0.01-0.03L48.08,8.4l-0.01-0.04l-0.01-0.03L48.05,8.3l-0.01-0.04l-0.01-0.03L48.02,8.2l-0.01-0.04L48,8.13l-0.01-0.04
					l-0.01-0.04l-0.01-0.03l-0.01-0.04V7.95l-0.01-0.04l-0.01-0.04l-0.01-0.04l-0.01-0.04l-0.01-0.03L47.9,7.72V7.68l-0.01-0.04
					L47.88,7.6l-0.01-0.04V7.52l-0.01-0.04l-0.01-0.05l-0.01-0.04c-0.39-5.29,10.42-4.65,9.41,0.19h-2.72l-0.01-0.02V7.54
					l-0.01-0.02L54.5,7.5V7.49l-0.01-0.02l-0.01-0.02V7.44l-0.01-0.02L54.46,7.4l-0.01-0.01V7.37l-0.01-0.02l-0.01-0.01V7.32
					l-0.01-0.01l-0.01-0.02L54.4,7.28l-0.01-0.02V7.24l-0.01-0.01l-0.01-0.02L54.36,7.2V7.18l-0.01-0.01l-0.01-0.01l-0.01-0.02
					l-0.01-0.01l-0.01-0.02V7.1L54.3,7.08l-0.01-0.01l-0.01-0.01l-0.01-0.02l-0.01-0.01V7.02L54.25,7l-0.01-0.01l-0.01-0.01
					l-0.01-0.02l-0.01-0.01L54.2,6.94l-0.01-0.01l-0.01-0.02L54.17,6.9V6.89l-0.01-0.01l-0.01-0.01l-0.01-0.02l-0.01-0.01
					l-0.01-0.01l-0.01-0.01L54.1,6.81L54.09,6.8l-0.01-0.01l-0.01-0.02l-0.01-0.01l-0.01-0.01l-0.01-0.01l-0.01-0.01l-0.01-0.01
					l-0.01-0.01L54,6.7l-0.01-0.01l-0.01-0.01l-0.01-0.01l-0.01-0.01l-0.01-0.01l-0.01-0.01l-0.01-0.01l-0.01-0.01l-0.01-0.01
					L53.9,6.6l-0.01-0.01h-0.01l-0.01-0.01l-0.01-0.01l-0.01-0.01l-0.01-0.01l-0.01-0.01l-0.01-0.01h-0.01L53.8,6.52l-0.02-0.01
					L53.77,6.5l-0.01-0.01l-0.02-0.01l-0.02-0.02L53.7,6.45l-0.02-0.02l-0.03-0.01l-0.02-0.01l-0.02-0.02l-0.02-0.01l-0.03-0.01
					l-0.02-0.02l-0.02-0.01L53.5,6.33l-0.03-0.01l-0.02-0.01L53.43,6.3l-0.02-0.01l-0.03-0.01l-0.02-0.01l-0.02-0.01l-0.03-0.01
					l-0.02-0.01h-0.02l-0.03-0.01l-0.02-0.01L53.2,6.21h-0.02L53.15,6.2l-0.02-0.01h-0.02l-0.03-0.01h-0.02l-0.02-0.01h-0.03
					l-0.02-0.01h-0.02l-0.03-0.01h-0.02H52.9l-0.03-0.01h-0.02h-0.02H52.8l-0.02-0.01h-0.02h-0.03h-0.02h-0.02h-0.03h-0.02h-0.02
					h-0.03h-0.02h-0.02h-0.02H52.5h-0.02h-0.02h-0.02l-0.03,0.01h-0.02h-0.02h-0.02h-0.02L52.3,6.15h-0.02h-0.02l-0.02,0.01h-0.02
					h-0.03l-0.02,0.01h-0.02l-0.02,0.01h-0.02l-0.02,0.01h-0.02L52.05,6.2h-0.02l-0.02,0.01h-0.03l-0.02,0.01h-0.02l-0.02,0.01
					L51.9,6.24h-0.02l-0.02,0.01l-0.01,0.01h-0.02l-0.02,0.01l-0.02,0.01l-0.02,0.01h-0.02L51.73,6.3l-0.02,0.01l-0.02,0.01h-0.01
					l-0.02,0.01l-0.02,0.01l-0.02,0.01L51.6,6.36l-0.01,0.01h-0.02l-0.02,0.01l-0.02,0.01L51.52,6.4L51.5,6.41l-0.02,0.01
					l-0.01,0.01l-0.02,0.01l-0.01,0.01l-0.02,0.01L51.4,6.47l-0.01,0.01l-0.02,0.01L51.36,6.5l-0.02,0.01l-0.01,0.01l-0.02,0.01
					L51.3,6.54l-0.01,0.01l-0.02,0.01l-0.01,0.01l-0.02,0.01l-0.01,0.01L51.22,6.6l-0.01,0.02l-0.02,0.01l-0.01,0.01l-0.01,0.01
					l-0.01,0.01l-0.02,0.01l-0.01,0.01l-0.01,0.01l-0.01,0.02L51.1,6.72l-0.01,0.01l-0.01,0.01l-0.02,0.01l-0.01,0.01l-0.01,0.02
					l-0.01,0.01L51.02,6.8l-0.01,0.01v0.01L51,6.84l-0.01,0.01l-0.01,0.01l-0.01,0.01l-0.01,0.02L50.95,6.9v0.01l-0.01,0.01
					l-0.01,0.01l-0.01,0.02v0.01l-0.01,0.01L50.9,6.98V7l-0.01,0.01l-0.01,0.01v0.01l-0.01,0.02v0.01l-0.01,0.01v0.01L50.85,7.1
					v0.01v0.01l-0.01,0.02v0.01l-0.01,0.01v0.01v0.02V7.2l-0.01,0.01v0.01v0.02v0.01v0.01l-0.01,0.01v0.02V7.3v0.01v0.01v0.02v0.01
					v0.01v0.01v0.02V7.4v0.01l0.01,0.01v0.02v0.01v0.01v0.01v0.02l0.01,0.01v0.01v0.01l0.01,0.02v0.01v0.01l0.01,0.01v0.01
					l0.01,0.02v0.01l0.01,0.01v0.01l0.01,0.01v0.02l0.01,0.01v0.01l0.01,0.01l0.01,0.01v0.02l0.01,0.01l0.01,0.01v0.01l0.01,0.01
					l0.01,0.01l0.01,0.01V7.8l0.01,0.01l0.01,0.01l0.01,0.01L51,7.84l0.01,0.01l0.01,0.01l0.01,0.01l0.01,0.02l0.01,0.01l0.01,0.01
					l0.01,0.01l0.01,0.01l0.01,0.01l0.01,0.01l0.01,0.01l0.01,0.01l0.01,0.01l0.01,0.01L51.15,8l0.02,0.01l0.01,0.01l0.01,0.01
					l0.01,0.01l0.01,0.01l0.02,0.01l0.01,0.01l0.01,0.01l0.02,0.01l0.01,0.01l0.01,0.01l0.02,0.01l0.01,0.01l0.02,0.01l0.01,0.01
					l0.01,0.01l0.02,0.01l0.01,0.01l0.02,0.01l0.01,0.01l0.02,0.01l0.01,0.01l0.02,0.01l0.02,0.01h0.01l0.02,0.01l0.01,0.01
					l0.02,0.01l0.02,0.01l0.01,0.01L51.6,8.3l0.02,0.01h0.01l0.02,0.01l0.02,0.01l0.01,0.01l0.02,0.01l0.02,0.01h0.02l0.01,0.01
					l0.02,0.01l0.02,0.01l0.02,0.01h0.02l0.01,0.01l0.02,0.01l0.02,0.01h0.02l0.02,0.01l0.02,0.01l0.02,0.01h0.01l0.02,0.01
					l0.02,0.01l0.04,0.01l0.04,0.02l0.04,0.01l0.04,0.01l0.04,0.02l0.04,0.01l0.04,0.01l0.04,0.01l0.04,0.02l0.04,0.01l0.04,0.01
					l0.04,0.01l0.04,0.01l0.04,0.02l0.05,0.01l0.04,0.01l0.04,0.01l0.04,0.01l0.04,0.01l0.05,0.01l0.04,0.01l0.04,0.01l0.04,0.01
					L53,8.76l0.04,0.01l0.04,0.01l0.04,0.01l0.09,0.02l0.08,0.02l0.09,0.01l0.08,0.02l0.09,0.02l0.08,0.02l0.09,0.01l0.08,0.02
					l0.04,0.01l0.05,0.01l0.04,0.01l0.04,0.01l0.04,0.01h0.04l0.04,0.01L54.13,9l0.05,0.01l0.04,0.01l0.04,0.01l0.04,0.01l0.04,0.01
					l0.04,0.01l0.04,0.01l0.04,0.01L54.5,9.1l0.04,0.01l0.04,0.01l0.04,0.01l0.03,0.01l0.04,0.02l0.04,0.01l0.04,0.01l0.04,0.01
					l0.02,0.01l0.02,0.01l0.02,0.01h0.02l0.02,0.01l0.01,0.01l0.02,0.01h0.02l0.02,0.01L55,9.27l0.02,0.01h0.02l0.02,0.01l0.02,0.01
					l0.01,0.01l0.02,0.01l0.02,0.01l0.02,0.01h0.02l0.02,0.01l0.02,0.01l0.01,0.01l0.02,0.01l0.02,0.01l0.02,0.01l0.02,0.01
					l0.01,0.01l0.02,0.01l0.02,0.01l0.02,0.01l0.02,0.01l0.02,0.01l0.01,0.01l0.02,0.02l0.02,0.01l0.02,0.01l0.02,0.01l0.01,0.01
					l0.04,0.02l0.03,0.03l0.03,0.02l0.03,0.02l0.03,0.02l0.03,0.03l0.04,0.02l0.03,0.03l0.03,0.02l0.03,0.03l0.03,0.02l0.03,0.03
					l0.03,0.02l0.03,0.03l0.03,0.03l0.03,0.02l0.03,0.03l0.03,0.03l0.03,0.02l0.03,0.03l0.03,0.03l0.02,0.03l0.03,0.03l0.03,0.03
					l0.03,0.03l0.03,0.03l0.02,0.03l0.03,0.03l0.03,0.03l0.03,0.03l0.02,0.03l0.03,0.03l0.02,0.03l0.03,0.03l0.02,0.03l0.03,0.04
					l0.02,0.03l0.03,0.03l0.02,0.03l0.03,0.04l0.02,0.03l0.02,0.03l0.03,0.04l0.02,0.03l0.02,0.03l0.03,0.04l0.02,0.03l0.02,0.03
					l0.02,0.04l0.02,0.03l0.02,0.04l0.02,0.03l0.02,0.04l0.02,0.03l0.02,0.04L57,11.2l0.02,0.04l0.02,0.03l0.01,0.04l0.02,0.03
					l0.02,0.04l0.02,0.03l0.01,0.04l0.02,0.04l0.02,0.03l0.01,0.04l0.02,0.03l0.01,0.04l0.01,0.04l0.02,0.03l0.01,0.04l0.02,0.04
					l0.01,0.03l0.01,0.04l0.01,0.03l0.01,0.04l0.02,0.04l0.01,0.03l0.01,0.04l0.01,0.04l0.01,0.03l0.01,0.04v0.04l0.01,0.03
					l0.01,0.04l0.01,0.04l0.01,0.03v0.04l0.01,0.04l0.01,0.03v0.04l0.01,0.04v0.03l0.01,0.04v0.04v0.03l0.01,0.04v0.03v0.04v0.04
					v0.03l0.01,0.04v0.03v0.04v0.04v0.03l-0.01,0.04v0.03v0.04v0.03v0.04l-0.01,0.03v0.04v0.03l-0.01,0.04v0.03l-0.01,0.04v0.03
					l-0.01,0.04l-0.01,0.03v0.04l-0.01,0.03l-0.01,0.04l-0.01,0.03l-0.01,0.03v0.04l-0.01,0.03l-0.01,0.03l-0.01,0.04l-0.02,0.03
					l-0.01,0.03l-0.01,0.04l-0.01,0.03l-0.01,0.03L57.27,14l-0.02,0.04l-0.01,0.03l-0.02,0.03l-0.01,0.03l-0.01,0.03l-0.02,0.04
					l-0.02,0.03l-0.01,0.03l-0.02,0.03l-0.02,0.03l-0.01,0.03l-0.02,0.03l-0.02,0.03l-0.02,0.03l-0.02,0.03l-0.01,0.03l-0.02,0.03
					l-0.02,0.03l-0.02,0.03l-0.03,0.03l-0.02,0.03l-0.02,0.03l-0.02,0.02l-0.02,0.03l-0.02,0.03l-0.03,0.03l-0.02,0.03l-0.02,0.02
					l-0.03,0.03L56.7,14.9l-0.03,0.02l-0.02,0.03l-0.03,0.03L56.6,15l-0.03,0.03l-0.03,0.03l-0.02,0.02l-0.03,0.03l-0.03,0.02
					l-0.03,0.03l-0.02,0.02l-0.03,0.03l-0.03,0.02l-0.03,0.02l-0.03,0.03l-0.03,0.02l-0.03,0.02l-0.03,0.03l-0.03,0.02l-0.03,0.02
					l-0.03,0.03l-0.04,0.02l-0.03,0.02l-0.03,0.02l-0.03,0.02l-0.04,0.02l-0.03,0.03l-0.03,0.02l-0.04,0.02l-0.03,0.02l-0.03,0.02
					l-0.04,0.02l-0.03,0.02l-0.04,0.02l-0.03,0.01l-0.04,0.02l-0.03,0.02l-0.04,0.02l-0.04,0.02l-0.03,0.02l-0.04,0.01l-0.03,0.02
					l-0.04,0.02l-0.04,0.02l-0.04,0.01l-0.03,0.02l-0.04,0.02l-0.04,0.01l-0.04,0.02l-0.03,0.01l-0.04,0.02l-0.04,0.01l-0.04,0.02
					l-0.04,0.01l-0.04,0.02l-0.04,0.01l-0.04,0.01l-0.04,0.02l-0.04,0.01l-0.04,0.01l-0.04,0.02l-0.04,0.01l-0.04,0.01l-0.04,0.01
					l-0.04,0.01l-0.04,0.02l-0.04,0.01l-0.04,0.01l-0.04,0.01l-0.04,0.01l-0.04,0.01l-0.04,0.01l-0.04,0.01l-0.04,0.01l-0.04,0.01
					l-0.05,0.01L54,16.29h-0.04l-0.04,0.01l-0.04,0.01l-0.04,0.01l-0.04,0.01h-0.05l-0.04,0.01l-0.04,0.01h-0.04l-0.04,0.01
					l-0.05,0.01H53.5l-0.04,0.01h-0.04l-0.04,0.01h-0.04l-0.05,0.01h-0.04l-0.04,0.01h-0.04h-0.04l-0.05,0.01h-0.04H53h-0.04
					l-0.04,0.01h-0.05h-0.04h-0.04h-0.04l-0.04,0.01h-0.04h-0.04h-0.05h-0.04H52.5h-0.04h-0.04h-0.04l-0.04-0.01H52.3h-0.05h-0.04
					h-0.04h-0.04l-0.04-0.01h-0.04h-0.04l-0.04-0.01h-0.04h-0.04l-0.04-0.01h-0.04l-0.04-0.01h-0.04h-0.04l-0.04-0.01l-0.04-0.01
					h-0.04l-0.04-0.01h-0.04l-0.04-0.01h-0.03l-0.04-0.01l-0.04-0.01l-0.04-0.01h-0.04l-0.04-0.01l-0.03-0.01l-0.04-0.01h-0.04
					l-0.04-0.01l-0.03-0.01L51,16.26l-0.04-0.01l-0.04-0.01l-0.03-0.01l-0.04-0.01l-0.03-0.01l-0.04-0.01l-0.04-0.01l-0.03-0.01
					l-0.04-0.01l-0.03-0.01l-0.04-0.01l-0.04-0.01l-0.03-0.01l-0.04-0.02l-0.03-0.01l-0.03-0.01l-0.04-0.01l-0.03-0.02l-0.04-0.01
					l-0.03-0.01l-0.03-0.02l-0.04-0.01L50.19,16l-0.03-0.02l-0.04-0.01l-0.03-0.01l-0.03-0.02l-0.03-0.01l-0.04-0.02l-0.03-0.01
					l-0.03-0.02l-0.03-0.01l-0.03-0.02l-0.03-0.02l-0.03-0.01l-0.03-0.02l-0.03-0.01l-0.03-0.02l-0.03-0.02l-0.03-0.01l-0.03-0.02
					L49.6,15.7l-0.03-0.01l-0.03-0.02l-0.03-0.02l-0.03-0.02l-0.02-0.02l-0.03-0.01l-0.03-0.02l-0.03-0.02l-0.02-0.02l-0.03-0.02
					l-0.03-0.02l-0.03-0.02l-0.02-0.02l-0.03-0.02l-0.02-0.02l-0.03-0.02l-0.02-0.02l-0.03-0.02l-0.02-0.02l-0.03-0.02l-0.02-0.02
					l-0.03-0.02l-0.02-0.02l-0.03-0.02l-0.02-0.02l-0.02-0.02l-0.02-0.02l-0.03-0.02l-0.02-0.03l-0.02-0.02l-0.02-0.02l-0.03-0.02
					l-0.02-0.02l-0.02-0.03L48.72,15l-0.02-0.02l-0.02-0.02l-0.02-0.03l-0.02-0.02l-0.02-0.02l-0.02-0.03l-0.02-0.02l-0.02-0.02
					l-0.02-0.03l-0.02-0.02l-0.01-0.02l-0.02-0.03l-0.02-0.02l-0.02-0.03l-0.02-0.02l-0.01-0.02L48.4,14.6l-0.02-0.02l-0.01-0.03
					l-0.02-0.02l-0.01-0.03l-0.02-0.02l-0.02-0.03l-0.01-0.02l-0.02-0.03l-0.01-0.02l-0.01-0.03l-0.02-0.02l-0.01-0.03l-0.02-0.02
					l-0.01-0.03l-0.01-0.02l-0.02-0.03l-0.01-0.03l-0.01-0.02l-0.01-0.03l-0.02-0.02l-0.01-0.03l-0.01-0.03l-0.01-0.02l-0.01-0.03
					l-0.01-0.02l-0.01-0.03l-0.01-0.03l-0.01-0.02l-0.01-0.03l-0.01-0.03L48,13.81l-0.01-0.03l-0.01-0.02l-0.01-0.03l-0.01-0.03
					l-0.01-0.02v-0.03l-0.01-0.03l-0.01-0.02l-0.01-0.03v-0.03l-0.01-0.02l-0.01-0.03v-0.03l-0.01-0.02l-0.01-0.03v-0.03l-0.01-0.02
					v-0.03l-0.01-0.03v-0.03l-0.01-0.02v-0.03l-0.01-0.03v-0.02v-0.03l-0.01-0.03v-0.02l-0.01-0.03v-0.03v-0.02v-0.03l-0.01-0.02
					v-0.03V12.9v-0.02l-0.01-0.03v-0.03V12.8v-0.03v-0.02v-0.03v-0.03v-0.02v-0.03v-0.02v-0.03v-0.03v-0.02v-0.03v-0.02v-0.03v-0.02
					v-0.03v-0.02v-0.03v-0.02l0.01-0.03v-0.02v-0.03v-0.02v-0.03l0.01-0.02v-0.02v-0.03v-0.02l0.01-0.03v-0.02v-0.02l0.01-0.03V12
					V11.98z"/>
				<rect x="36.89" y="13.41" class="st0" width="9.23" height="2.5"/>
				<rect x="36.89" y="3.85" class="st0" width="9.23" height="2.71"/>
				<rect x="37.73" y="8.65" class="st0" width="7.55" height="2.75"/>
				<polygon class="st0" points="23.11,15.91 19.4,3.85 22.29,3.85 24.36,10.56 26.52,3.85 28.54,3.85 30.56,10.39 32.67,3.85 
					35.78,3.85 31.89,15.91 29.57,15.91 27.57,9.43 25.48,15.91 				"/>
			</g>
			<g>
			</g>
		</g>
	</g>
</g>
</svg>
